PathFileType	4	(X/Y/Z)	24_2_116_p1_0-543.trc
DataRate	CameraRate	NumFrames	NumMarkers	Units	OrigDataRate	OrigDataStartFrame	OrigNumFrames
53.0	53.0	4	27	m	53.0	0	544
Frame#	Time	RHip			RKnee			RAnkle			RBigToe			RSmallToe			RHeel			LHip			LKnee			LAnkle			LBigToe			LSmallToe			LHeel			Neck			Head			Nose			RShoulder			RElbow			RWrist			RThumb			RIndex			RPinky			LShoulder			LElbow			LWrist			LThumb			LIndex			LPinky			
		X1	Y1	Z1	X2	Y2	Z2	X3	Y3	Z3	X4	Y4	Z4	X5	Y5	Z5	X6	Y6	Z6	X7	Y7	Z7	X8	Y8	Z8	X9	Y9	Z9	X10	Y10	Z10	X11	Y11	Z11	X12	Y12	Z12	X13	Y13	Z13	X14	Y14	Z14	X15	Y15	Z15	X16	Y16	Z16	X17	Y17	Z17	X18	Y18	Z18	X19	Y19	Z19	X20	Y20	Z20	X21	Y21	Z21	X22	Y22	Z22	X23	Y23	Z23	X24	Y24	Z24	X25	Y25	Z25	X26	Y26	Z26	X27	Y27	Z27	
0	0.0	0.41570225429587176	0.5961784393730112	0.8383012200586268	0.4173041523049578	0.6632870052268437	1.2748493139192627	0.3814919753856973	0.7865058730068506	1.7135460650685248	0.4054398493306563	0.5480467047455935	1.72723956362517	0.4521057517356744	0.5687233233286454	1.7093301187287762	0.36103557980337003	0.8034853405443453	1.7647807519370926	0.19373425063372124	0.5602490295655439	0.8442064863806996	0.1979194950122673	0.6242711322764454	1.2716628097635125	0.19379230714295195	0.6934978016699573	1.700739506023289	0.2477024938643185	0.4959369546868778	1.705693176856013	0.1840060432287846	0.5502775804920771	1.7187909728312316	0.2016532904852212	0.7636287012763058	1.7565742398493505	0.3085265958981465	0.493682327155544	0.24778623134169583	0.30755439115805083	0.4343927539603565	0.02368383440377144	0.3230488843776298	0.35130651304922716	0.1384646885515306	0.46981138435626213	0.5233689289270087	0.34736044569794766	0.5205524412160469	0.5667490018953216	0.6193803366727879	0.42766321747205904	0.4153283481617288	0.7984119988065523	0.320026185582534	0.3799418355759527	0.833905406295411	0.2979460233015678	0.4277444766147212	0.8639971853143005	0.31373758824297016	0.4298940943363251	0.8726714334882255	0.15599335283426935	0.5293571930311063	0.349979191785856	0.09849591986232584	0.5024691068821303	0.6099844526030952	0.2544317341435124	0.4319791367755106	0.7870491044136232	0.3381155255480886	0.3806237901477408	0.8209742126316836	0.35050455973151845	0.3992315460857372	0.8567237912112755	0.31443783379933216	0.455224143257655	0.8784128262126859
1	0.018867924528301886	0.41986089864552306	0.5986196140679662	0.8380612965378975	0.41816007293728985	0.6624336851017719	1.2703028476932383	0.3804848379215593	0.7882801522691223	1.718750420621304	0.4054134283860421	0.5470293182079761	1.7262454510713467	0.4518296201930641	0.5674733239282498	1.7085784629434584	0.36374594346841876	0.8200419149997377	1.769928318867686	0.19434283885365172	0.5598365368834565	0.8395263385048677	0.1979951162678995	0.6242331798778455	1.2715537804521344	0.20076218622599717	0.6774052166506124	1.693122078313694	0.24736254009797645	0.4928391003680195	1.700512951863325	0.1908138586674501	0.5351185419101921	1.7109104848290226	0.21013251195031918	0.7473515050640088	1.757927034894607	0.30856251875461455	0.4939465621497123	0.24777282648759288	0.30775799137921345	0.43584712973164047	0.02713249138938362	0.32697851821590174	0.35510605032599146	0.14137739957003556	0.4700143952443325	0.5231531829297357	0.3440388646916323	0.5209372898463953	0.5661877305388096	0.6159628286507802	0.4281223914513958	0.41470481091432454	0.7948535778899044	0.3195746617107075	0.37967307179726156	0.8366004987752931	0.29786924426836253	0.42730701069647076	0.8670804011604584	0.30804377576732883	0.44314411561364575	0.8758105565370089	0.15597739432601837	0.5295638729219566	0.3498405225021074	0.09897681644856902	0.501801618728942	0.6060481725263731	0.25439967098177924	0.4319264586893072	0.7870556524501756	0.3377865586599682	0.3783995160259369	0.8207977884844466	0.3502684172277901	0.3991963806233916	0.8566083501013783	0.3124705915604484	0.44363242586384516	0.8759560718643126
2	0.03773584905660377	0.42026918885980924	0.6006972310467891	0.8425298645972675	0.41732725514021773	0.6631765677382594	1.2750188372249909	0.38046950103165483	0.7882682985035174	1.7187266408883681	0.40481638915717566	0.5487112037866386	1.7225687365921536	0.45432784385251873	0.5814905064601263	1.7146116132361913	0.36320963089100416	0.8215834441389999	1.7657918542855382	0.19465174101069185	0.5618176564044148	0.8438184791502318	0.1980018110662469	0.624115531409763	1.2715474388166739	0.20080036792147024	0.6772684064702752	1.6929683824930766	0.2473598425387171	0.49307555563886707	1.7005317391518082	0.19067585695442302	0.5352208504903846	1.7108180890682452	0.21027222933710485	0.7477953370826662	1.7577237826283942	0.30856196812879677	0.49411538611972733	0.24772903974151567	0.3077198950064294	0.4361068191242923	0.0272549667442768	0.32680877444822226	0.35383189521853653	0.13823439540411706	0.46990356182287296	0.5235780242638546	0.3473340329918595	0.5206088602546944	0.5666278450541786	0.6194827999792476	0.42769749541209356	0.41528179350514755	0.7984047368622607	0.320057447543662	0.37941064809139396	0.833772312109474	0.29772333755202424	0.4275215683921648	0.867097830144751	0.31359310130470736	0.429773465638759	0.8727289804191859	0.15625658671283843	0.5291633086033496	0.3536429423369635	0.09901132596328723	0.5017854815480857	0.606052705086006	0.2543949416400973	0.4317116048439442	0.7871232503960096	0.3378684662360554	0.3784627060867943	0.8206015484828999	0.35038781247147105	0.39910331006926764	0.8566494935504044	0.3124849746160456	0.44328293206521446	0.8760015844007045
3	0.05660377358490566	0.4162742934864757	0.5982554757454515	0.8422938281232262	0.41813138470601574	0.6624483108848844	1.2703135382194546	0.38156191913950993	0.7871569580740694	1.7136797997328035	0.400509828474431	0.5467218000331479	1.7220488964715104	0.45427910879687095	0.5814138942033872	1.7145945896713577	0.36319393216030427	0.8218432448245083	1.7657685649408512	0.19465033843423482	0.5618374965641101	0.8437865442687017	0.1979936495798119	0.6241226997280875	1.2715251509677081	0.2007868331963868	0.6773032185075152	1.6929916691836473	0.24733624982405425	0.4933311223571408	1.7006089988978652	0.19069282045480118	0.5353077940251307	1.710919336553049	0.21026882096341068	0.7477090333691856	1.7575123628352258	0.3085815956856812	0.49402243635371773	0.2477515483132304	0.3077783786485547	0.4360142177437399	0.02728409776276137	0.3269703528704996	0.3552175175961733	0.14135906596840767	0.4699553418450149	0.5234905305962986	0.3472884330384983	0.5206431271765555	0.5665518816991864	0.619479508530926	0.42771989619643536	0.4152549065443798	0.7984202431684709	0.319539693738144	0.38069522068672124	0.830836542625941	0.29707899090991446	0.4292043038704472	0.8640429729073937	0.3135451361619504	0.42972054544889837	0.8727918753160377	0.1562701858259582	0.5291597349646611	0.35357951950722666	0.098981691650719	0.5017641483709798	0.6060810884898167	0.2543468726298964	0.4317425292803867	0.7871572656394712	0.33829590132343285	0.38050635249065196	0.824017809665499	0.3504432428735721	0.3993064405727972	0.8567038528610121	0.3124833206349123	0.4433097849960939	0.8761449788562959
